#define ahead_width 76
#define ahead_height 64
static unsigned char ahead_bits[] = {
   0x00, 0x00, 0x00, 0x00, 0x00, 0x00, 0x00, 0x00, 0x00, 0x00, 0x00, 0xfc,
   0x03, 0x00, 0x00, 0x00, 0x00, 0xf8, 0x01, 0x00, 0x00, 0xff, 0x0f, 0x00,
   0x00, 0x00, 0x00, 0xfe, 0x0f, 0x00, 0x80, 0xff, 0x3f, 0x00, 0x00, 0x00,
   0x00, 0xff, 0x1f, 0x00, 0xc0, 0xff, 0x3f, 0x00, 0x00, 0x00, 0xc0, 0xff,
   0x3f, 0x00, 0xe0, 0x3f, 0x7c, 0x00, 0x00, 0x00, 0xc0, 0xff, 0x7f, 0x00,
   0xe0, 0x07, 0xc0, 0x00, 0x00, 0x00, 0xe0, 0x03, 0xfe, 0x00, 0xf0, 0x01,
   0x00, 0x00, 0x00, 0x00, 0x70, 0x00, 0xf0, 0x00, 0x70, 0x00, 0x00, 0x00,
   0x00, 0x00, 0x10, 0x00, 0xe0, 0x01, 0x30, 0x00, 0x00, 0x00, 0x00, 0x00,
   0x00, 0x00, 0xc0, 0x01, 0x10, 0x00, 0x00, 0x00, 0x00, 0x00, 0x00, 0x00,
   0x00, 0x01, 0x18, 0x00, 0x00, 0x00, 0x00, 0x00, 0x00, 0x00, 0x00, 0x01,
   0x00, 0x00, 0x00, 0x00, 0x00, 0x00, 0x00, 0x00, 0x00, 0x00, 0x00, 0xc0,
   0x1f, 0x00, 0x00, 0x00, 0x80, 0x3f, 0x00, 0x00, 0x00, 0xf0, 0x7f, 0x00,
   0x00, 0x00, 0xe0, 0xff, 0x00, 0x00, 0x00, 0x3c, 0xc0, 0x01, 0x00, 0x00,
   0x78, 0x80, 0x03, 0x00, 0x00, 0x06, 0x80, 0x03, 0x00, 0x00, 0x1c, 0x00,
   0x06, 0x00, 0x00, 0x03, 0x00, 0x06, 0x00, 0x00, 0x06, 0x00, 0x0c, 0x00,
   0x80, 0x01, 0x00, 0x0c, 0x00, 0x00, 0x03, 0x00, 0x18, 0x00, 0xc0, 0x00,
   0x00, 0x18, 0x00, 0x80, 0x01, 0x00, 0x30, 0x00, 0x60, 0x00, 0x00, 0x30,
   0x00, 0xc0, 0x00, 0x00, 0x60, 0x00, 0x60, 0x00, 0x00, 0x30, 0x00, 0xc0,
   0x00, 0x00, 0x60, 0x00, 0x30, 0x00, 0x00, 0x60, 0x00, 0x60, 0x00, 0x00,
   0xc0, 0x00, 0x10, 0x00, 0x00, 0xc0, 0x00, 0x20, 0x00, 0x00, 0x80, 0x01,
   0x18, 0x00, 0x00, 0xc0, 0x00, 0x30, 0x00, 0x00, 0x80, 0x01, 0x08, 0x00,
   0x00, 0x80, 0x00, 0x10, 0x00, 0x00, 0x00, 0x01, 0x0c, 0x00, 0x00, 0x80,
   0x01, 0x18, 0x00, 0x00, 0x00, 0x03, 0x0c, 0x00, 0x00, 0x80, 0x01, 0x18,
   0x00, 0x00, 0x00, 0x03, 0x04, 0x00, 0x00, 0x00, 0x01, 0x08, 0x00, 0x00,
   0x00, 0x02, 0x06, 0x40, 0x0c, 0x00, 0x03, 0x0c, 0x80, 0x11, 0x00, 0x06,
   0x06, 0x30, 0x38, 0x00, 0x03, 0x0c, 0xe0, 0x60, 0x00, 0x06, 0x06, 0x38,
   0x78, 0x00, 0x02, 0x0c, 0xf0, 0xe0, 0x00, 0x04, 0x02, 0x3c, 0x7c, 0x00,
   0x02, 0x04, 0xf8, 0xe0, 0x00, 0x04, 0x02, 0x7c, 0xfc, 0x00, 0x02, 0x04,
   0xf8, 0xf1, 0x01, 0x04, 0x03, 0xfc, 0xff, 0x00, 0x06, 0x06, 0xf8, 0xff,
   0x01, 0x0c, 0x03, 0xfe, 0xff, 0x01, 0x06, 0x06, 0xfc, 0xff, 0x03, 0x0c,
   0x03, 0xfe, 0xff, 0x01, 0x06, 0x06, 0xfc, 0xff, 0x03, 0x0c, 0x03, 0xfe,
   0xff, 0x01, 0x06, 0x06, 0xfc, 0xff, 0x03, 0x0c, 0x03, 0xfe, 0xff, 0x01,
   0x06, 0x06, 0xfc, 0xff, 0x03, 0x0c, 0x03, 0xfe, 0xff, 0x01, 0x06, 0x06,
   0xfc, 0xff, 0x03, 0x0c, 0x03, 0xfe, 0xff, 0x01, 0x06, 0x06, 0xfc, 0xff,
   0x01, 0x0c, 0x03, 0xfc, 0xff, 0x00, 0x06, 0x06, 0xf8, 0xff, 0x01, 0x0c,
   0x03, 0xfc, 0xff, 0x00, 0x06, 0x06, 0xf8, 0xff, 0x01, 0x0c, 0x02, 0xf8,
   0x7f, 0x00, 0x02, 0x04, 0xf0, 0xff, 0x00, 0x04, 0x02, 0xf0, 0x3f, 0x00,
   0x02, 0x04, 0xe0, 0x7f, 0x00, 0x04, 0x06, 0xc0, 0x0f, 0x00, 0x03, 0x0c,
   0x80, 0x1f, 0x00, 0x06, 0x06, 0x00, 0x00, 0x00, 0x03, 0x0c, 0x00, 0x00,
   0x00, 0x06, 0x06, 0x00, 0x00, 0x00, 0x03, 0x0c, 0x00, 0x00, 0x00, 0x06,
   0x04, 0x00, 0x00, 0x00, 0x01, 0x08, 0x00, 0x00, 0x00, 0x02, 0x0c, 0x00,
   0x00, 0x80, 0x01, 0x18, 0x00, 0x00, 0x00, 0x03, 0x0c, 0x00, 0x00, 0x80,
   0x01, 0x18, 0x00, 0x00, 0x00, 0x03, 0x08, 0x00, 0x00, 0x80, 0x00, 0x10,
   0x00, 0x00, 0x00, 0x01, 0x18, 0x00, 0x00, 0xc0, 0x00, 0x30, 0x00, 0x00,
   0x80, 0x01, 0x10, 0x00, 0x00, 0x40, 0x00, 0x20, 0x00, 0x00, 0x80, 0x00,
   0x30, 0x00, 0x00, 0x60, 0x00, 0x60, 0x00, 0x00, 0xc0, 0x00, 0x60, 0x00,
   0x00, 0x20, 0x00, 0xc0, 0x00, 0x00, 0x40, 0x00, 0x60, 0x00, 0x00, 0x30,
   0x00, 0xc0, 0x00, 0x00, 0x60, 0x00, 0xc0, 0x00, 0x00, 0x18, 0x00, 0x80,
   0x01, 0x00, 0x30, 0x00, 0x80, 0x01, 0x00, 0x0c, 0x00, 0x00, 0x03, 0x00,
   0x18, 0x00, 0x00, 0x03, 0x00, 0x06, 0x00, 0x00, 0x06, 0x00, 0x0c, 0x00,
   0x00, 0x06, 0x80, 0x03, 0x00, 0x00, 0x0c, 0x00, 0x07, 0x00, 0x00, 0x1c,
   0xe0, 0x01, 0x00, 0x00, 0x38, 0xc0, 0x03, 0x00, 0x00, 0xf0, 0x7f, 0x00,
   0x00, 0x00, 0xe0, 0xff, 0x00, 0x00, 0x00, 0x80, 0x0f, 0x00, 0x00, 0x00,
   0x00, 0x1f, 0x00, 0x00 };
